<svg width="86" height="86" viewBox="0 0 86 86" fill="none" xmlns="http://www.w3.org/2000/svg">
<path d="M39.3716 50.663L42.6916 47.3423L35.1731 43.1431L39.3716 50.663Z" fill="#941B0C"/>
<path d="M76.7328 -3.8147e-06H56.8331C52.4646 -3.8147e-06 46.6225 2.4198 43.5341 5.50885L2.70587 46.3364C0.960572 48.0811 0 50.4077 0 52.8885C0 55.3693 0.961228 57.6959 2.70587 59.4406L26.5587 83.2941C28.3034 85.0388 30.6307 86 33.1108 86C35.5917 86 37.9183 85.0388 39.6636 83.2941L80.4911 42.4659C83.5802 39.3775 86 33.5354 86 29.1669V9.26583C85.9993 4.15657 81.8421 -3.8147e-06 76.7328 -3.8147e-06ZM71.9031 17.8047C71.434 18.2732 70.7844 18.5422 70.121 18.5422C69.457 18.5422 68.8088 18.2732 68.3403 17.8047C67.8699 17.3362 67.6015 16.6866 67.6015 16.0226C67.6015 15.3593 67.8699 14.711 68.3403 14.2419C68.8088 13.7734 69.457 13.5051 70.121 13.5051C70.7844 13.5051 71.434 13.7734 71.9031 14.2419C72.3716 14.711 72.6406 15.3593 72.6406 16.0226C72.6406 16.6866 72.3716 17.3362 71.9031 17.8047Z" fill="#941B0C"/>
<path d="M36.6015 60.4946C36.4771 60.6191 36.3357 60.6813 36.1773 60.6813C36.0302 60.67 35.9001 60.6077 35.787 60.4946L26.9962 51.7039L26.4022 56.2689C26.3683 56.4386 26.2948 56.5688 26.1816 56.6593C26.0572 56.7385 25.9044 56.7667 25.7234 56.7441L24.0942 56.5405C23.9245 56.5065 23.7888 56.4273 23.6869 56.3029C23.5964 56.1671 23.5682 56.0144 23.6021 55.8447L24.4676 49.1074C24.4789 48.9829 24.5128 48.8811 24.5694 48.8019C24.626 48.7227 24.6939 48.6435 24.7731 48.5643L26.2665 47.0709C26.3796 46.9578 26.5154 46.9012 26.6738 46.9012C26.8322 46.9012 26.9679 46.9578 27.0811 47.0709L38.1459 58.1357C38.259 58.2488 38.3156 58.3846 38.3156 58.543C38.3156 58.7014 38.259 58.8372 38.1459 58.9503L36.6015 60.4946ZM45.4923 51.9433C44.689 52.7466 43.8857 53.3123 43.0824 53.6404C42.2792 53.9685 41.4872 54.1042 40.7066 54.0477C39.9259 53.9911 39.1736 53.7818 38.4495 53.4197C37.7141 53.0464 37.0183 52.5656 36.3621 51.9772C36.0453 51.6831 35.7002 51.3606 35.3269 51.0099C34.9535 50.6366 34.5802 50.2632 34.2068 49.8899C33.8448 49.5052 33.511 49.1488 33.2056 48.8207C32.6059 48.1758 32.1308 47.4857 31.78 46.7503C31.418 46.0036 31.2144 45.2456 31.1691 44.4763C31.1352 43.6956 31.2822 42.9037 31.6103 42.1004C31.9384 41.2971 32.4928 40.5051 33.2735 39.7245C34.0654 38.9325 34.863 38.3725 35.6663 38.0444C36.4696 37.7163 37.2559 37.5749 38.0252 37.6201C38.8059 37.6541 39.5639 37.8577 40.2993 38.2311C41.0347 38.5818 41.7248 39.057 42.3697 39.6566C42.7091 39.9508 43.0655 40.2845 43.4388 40.6579C43.8122 41.0312 44.1855 41.4046 44.5589 41.7779C44.9209 42.14 45.2434 42.485 45.5262 42.8131C46.1258 43.458 46.6123 44.1482 46.9857 44.8835C47.3477 45.6076 47.557 46.36 47.6136 47.1406C47.6702 47.9213 47.5287 48.7189 47.1893 49.5335C46.8612 50.3368 46.2955 51.14 45.4923 51.9433ZM43.5406 49.9917C44.276 49.2563 44.5759 48.4813 44.4401 47.6667C44.3043 46.8295 43.8291 45.9923 43.0146 45.1551C42.7091 44.8044 42.3923 44.4649 42.0642 44.1368C41.7248 43.7974 41.3854 43.458 41.046 43.1186C40.7066 42.7792 40.3728 42.4681 40.0447 42.1852C39.2301 41.3933 38.4042 40.9294 37.567 40.7936C36.7298 40.6353 35.9435 40.9238 35.2081 41.6591C34.484 42.3832 34.1955 43.1695 34.3426 44.0181C34.4897 44.844 34.9535 45.6699 35.7342 46.4958C36.0397 46.8012 36.3564 47.1293 36.6845 47.48C37.024 47.8195 37.3634 48.1589 37.7028 48.4983C38.0422 48.8151 38.3759 49.1375 38.704 49.4656C39.5526 50.2689 40.3954 50.7384 41.2327 50.8742C42.0586 50.9986 42.8279 50.7045 43.5406 49.9917ZM52.7765 44.3197C52.5389 44.5573 52.307 44.5629 52.0807 44.3366C52.0128 44.2688 51.9732 44.1839 51.9619 44.0821L49.2975 24.6847C49.2749 24.5037 49.2749 24.3453 49.2975 24.2096C49.3201 24.0738 49.405 23.9324 49.5521 23.7853L50.4515 22.8859C50.6891 22.6483 50.921 22.6426 51.1473 22.8689C51.2152 22.9368 51.2548 23.0216 51.2661 23.1234L53.9305 42.5208C53.9531 42.7018 53.9531 42.8602 53.9305 42.996C53.9192 43.1204 53.8343 43.2618 53.6759 43.4202L52.7765 44.3197ZM61.0411 36.2587C60.2831 37.0167 59.4742 37.407 58.6144 37.4296C57.7545 37.4523 56.9625 37.1468 56.2385 36.5132C55.933 36.2304 55.6728 35.9815 55.4578 35.7665C55.2429 35.5516 54.9827 35.28 54.6772 34.9519C54.0436 34.2279 53.7268 33.4472 53.7268 32.61C53.7381 31.7615 54.1398 30.9412 54.9317 30.1493C55.735 29.346 56.5553 28.9443 57.3925 28.9443C58.241 28.933 59.0216 29.2498 59.7344 29.8947C60.0738 30.1889 60.351 30.4434 60.566 30.6584C60.7809 30.8733 61.0242 31.1392 61.2957 31.456C61.9406 32.1688 62.2461 32.9607 62.2121 33.8319C62.1895 34.6917 61.7992 35.5006 61.0411 36.2587ZM59.7174 34.935C59.9663 34.6861 60.1078 34.4428 60.1417 34.2052C60.187 33.9563 60.1643 33.7187 60.0738 33.4925C59.9833 33.2662 59.8589 33.0739 59.7005 32.9155C59.4403 32.61 59.214 32.3611 59.0216 32.1688C58.818 31.9651 58.5748 31.7445 58.2919 31.5069C58.0204 31.258 57.7036 31.0996 57.3416 31.0317C56.9682 30.9525 56.6005 31.094 56.2385 31.456C55.8877 31.8067 55.752 32.1688 55.8312 32.5421C55.8991 32.9041 56.0518 33.2266 56.2894 33.5094C56.5383 33.781 56.7646 34.0185 56.9682 34.2222C57.1605 34.4145 57.4038 34.6465 57.6979 34.918C57.879 35.0538 58.0769 35.1725 58.2919 35.2744C58.5182 35.3649 58.7501 35.3932 58.9877 35.3592C59.2366 35.314 59.4798 35.1725 59.7174 34.935ZM48.2623 37.0223C47.5043 37.7804 46.7067 38.182 45.8695 38.2272C45.0322 38.2725 44.2516 37.9783 43.5275 37.3448C43.2221 37.0619 42.9618 36.813 42.7469 36.5981C42.5206 36.3718 42.2547 36.0946 41.9493 35.7665C41.3157 35.0424 40.9989 34.2618 40.9989 33.4246C41.0102 32.576 41.4119 31.7558 42.2038 30.9638C43.0071 30.1606 43.8273 29.7589 44.6645 29.7589C45.5131 29.7476 46.2937 30.0644 47.0065 30.7093C47.3459 31.0034 47.6287 31.2637 47.855 31.4899C48.07 31.7049 48.3132 31.9708 48.5847 32.2875C49.2296 33.0003 49.5238 33.781 49.4672 34.6295C49.422 35.4667 49.0203 36.2643 48.2623 37.0223ZM47.0065 35.7665C47.2554 35.5176 47.3968 35.2744 47.4307 35.0368C47.476 34.7879 47.4534 34.5503 47.3629 34.324C47.2724 34.0977 47.1423 33.8998 46.9725 33.73C46.7123 33.4246 46.4861 33.1757 46.2937 32.9833C46.0901 32.7797 45.8468 32.5591 45.564 32.3215C45.2925 32.0726 44.9757 31.9142 44.6136 31.8463C44.2516 31.7784 43.8896 31.9255 43.5275 32.2875C43.1768 32.6383 43.0354 32.9947 43.1033 33.3567C43.1711 33.7187 43.3295 34.0355 43.5784 34.307C43.8273 34.5786 44.0536 34.8162 44.2573 35.0198C44.4496 35.2121 44.6928 35.4441 44.987 35.7156C45.168 35.874 45.366 36.0041 45.581 36.1059C45.8072 36.1964 46.0392 36.2247 46.2768 36.1908C46.5257 36.1455 46.7689 36.0041 47.0065 35.7665Z" fill="white"/>
</svg>
